<svg width="71" height="24" viewBox="0 0 71 24" xmlns="http://www.w3.org/2000/svg">
    <g clip-path="url(#clip0_79471_320709)">
        <path
            d="M58.47 3.36C59.3962 3.36 60.15 2.60625 60.15 1.68C60.15 0.75375 59.3962 0 58.47 0C57.5437 0 56.79 0.75375 56.79 1.68C56.79 2.60625 57.5437 3.36 58.47 3.36Z"
            fill="white"></path>
        <path
            d="M36.3338 8.64465L34.095 7.31215C31.145 12.2684 26.8638 14.7471 25.2075 15.2734C25.2113 14.5771 25.3538 13.4784 25.4412 12.8096C25.71 10.7334 25.8725 9.4809 24.7412 8.94465C23.905 8.5484 23.2925 8.99715 21.9513 9.98215C19.7863 11.5709 17.4937 13.0459 15.3575 13.6371C15.9575 11.4134 15.5087 9.18715 14.1587 7.76715C12.7013 6.23465 10.0375 5.5734 7.9725 7.3684C6.475 8.66965 5.74375 11.1796 7.67625 13.6171C8.51625 14.6759 9.4325 15.3996 10.39 15.8609C10.26 15.9059 10.1275 15.9434 9.99125 15.9709C5.83625 16.8284 3.90625 14.1196 2.87 12.6634C2.75125 12.4971 2.64875 12.3534 2.56125 12.2396L0.5 13.8321C0.57125 13.9234 0.6525 14.0396 0.74875 14.1734C1.6925 15.4996 4 18.7421 8.44625 18.7421C9.09125 18.7421 9.78125 18.6734 10.5188 18.5221C11.8275 18.2521 12.9825 17.5459 13.8638 16.5171C17.3337 16.3296 20.81 14.0234 22.8475 12.5534C22.5312 14.9934 22.2763 17.0909 23.7625 17.7984C25.3713 18.5634 28.3413 16.7321 29.5438 15.9084C31.1 14.8421 34.0513 12.4809 36.3338 8.6459V8.64465ZM12.7825 13.1621C12.7113 13.3896 12.6262 13.6071 12.53 13.8121C11.495 13.6034 10.5425 13.0371 9.7175 11.9971C8.54375 10.5171 9.3925 9.58465 9.68125 9.33465C9.99625 9.0609 10.4062 8.8859 10.8488 8.8859C11.3138 8.8859 11.8137 9.0809 12.2712 9.56215C13.02 10.3496 13.2213 11.7634 12.7825 13.1634V13.1621Z"
            fill="white"></path>
        <path
            d="M25.1612 21.0444L25.1537 23.6494C25.1862 23.6494 25.3275 23.6494 25.5512 23.6494C26.8425 23.6494 30.865 23.6369 32.3237 23.4806L32.0462 20.8906C30.4762 21.0581 25.2137 21.0456 25.1612 21.0444Z"
            fill="white"></path>
        <path
            d="M15.9925 20.3828C15.0663 20.3828 14.3125 21.1366 14.3125 22.0628C14.3125 22.9891 15.0663 23.7428 15.9925 23.7428C16.9188 23.7428 17.6725 22.9891 17.6725 22.0628C17.6725 21.1366 16.9188 20.3828 15.9925 20.3828Z"
            fill="white"></path>
        <path
            d="M39.965 21.4103L40.245 24.0003C41.9688 23.8141 47.0438 23.7078 47.095 23.7066L47.0413 21.1016C46.8275 21.1053 41.8013 21.2103 39.965 21.4091V21.4103Z"
            fill="white"></path>
        <path
            d="M70.1212 14.1449C67.8537 14.8824 65.69 15.0424 63.9275 14.6324C66.4437 12.5524 66.6075 10.3537 66.24 8.78867C65.7312 6.62742 63.6325 4.69617 60.7437 5.37117C57.7337 6.07492 56.7337 8.91992 57.3025 11.3662C57.5837 12.5799 58.1125 13.6499 58.8612 14.5412C56.44 15.5012 53.8037 15.9874 52.5062 16.0749C52.605 15.3762 52.8475 14.3274 53.0262 13.5574C53.7287 10.5212 54.1925 8.51492 52.67 7.78367C51.3425 7.14617 50.1787 8.29117 46.7037 12.0062C45.6887 13.0912 44.1412 14.7449 43.1925 15.5524C43.0937 14.2387 43.45 11.6587 43.6012 10.5599C43.9525 8.00992 44.0712 7.15117 43.1487 6.60117C42.6662 6.31367 42.075 6.34742 41.605 6.69117C40.96 7.16367 40.6487 7.90992 40.2875 8.77242C39.4937 10.6699 38.165 13.8462 32.0862 16.3924L33.0925 18.7949C37.0025 17.1574 39.2537 15.2174 40.6337 13.4537C40.435 15.9774 40.6562 18.0687 42.3437 18.5212C43.6937 18.8837 44.98 17.6612 48.6075 13.7849C49.265 13.0824 50.1012 12.1887 50.8262 11.4649C50.7162 11.9949 50.59 12.5399 50.49 12.9699C49.85 15.7399 49.4625 17.4124 50.525 18.2749C50.7825 18.4837 51.5662 19.1212 55.7137 18.2024C56.9562 17.9274 59.1012 17.3587 61.1525 16.3662C63.7537 17.7362 67.2125 17.8287 70.9275 16.6212L70.1225 14.1437L70.1212 14.1449ZM62.7937 12.1362C62.3762 12.5724 61.8675 12.9687 61.3012 13.3274C60.5712 12.6687 60.0812 11.8137 59.84 10.7774C59.4312 9.01617 60.345 8.14117 61.3362 7.90867C61.4825 7.87492 61.6537 7.85242 61.8362 7.85242C62.5412 7.85242 63.4187 8.17867 63.7025 9.38617C63.8487 10.0074 63.9137 10.9674 62.7925 12.1362H62.7937Z"
            fill="white"></path>
    </g>
    <defs>
        <clipPath id="clip0_79471_320709">
            <rect width="70.4262" height="24" fill="white" transform="translate(0.5)"></rect>
        </clipPath>
    </defs>
</svg>